<svg width="210" height="47" viewBox="0 0 210 47" fill="none" xmlns="http://www.w3.org/2000/svg">
<path d="M209.222 0.839966V45.24H199.502V0.839966H209.222Z" fill="white"/>
<path d="M168.576 45.24H158.436L174.276 0.839966H183.756L199.536 45.24H189.216L186.096 35.88H171.756L168.576 45.24ZM177.756 18.24L174.576 27.72H183.336L180.156 18.24C179.676 16.74 179.136 15 178.956 13.92C178.776 14.94 178.296 16.62 177.756 18.24Z" fill="white"/>
<path d="M112.479 30.18C112.479 20.7 119.439 14.34 129.039 14.34C138.579 14.34 145.539 20.7 145.539 30.18C145.539 39.66 138.579 45.96 129.039 45.96C119.439 45.96 112.479 39.66 112.479 30.18ZM121.779 30.12C121.779 34.68 124.719 37.68 129.039 37.68C133.299 37.68 136.239 34.68 136.239 30.12C136.239 25.62 133.299 22.62 129.039 22.62C124.719 22.62 121.779 25.62 121.779 30.12Z" fill="white"/>
<path d="M73.8123 45.24H64.5723V15.24H73.2123L73.8123 18.36C75.3123 16.26 78.2523 14.28 82.5723 14.28C87.0723 14.28 89.9523 16.38 91.6923 19.56C93.2523 16.38 96.7923 14.28 101.112 14.28C108.852 14.28 112.692 18.78 112.692 25.62V45.24H103.452V28.2C103.452 24.42 101.472 22.62 98.5323 22.62C95.8923 22.62 93.2523 24.06 93.2523 29.16V45.24H84.0123V28.2C84.0123 24.48 82.0923 22.68 79.1523 22.68C76.5123 22.68 73.8123 24.12 73.8123 29.16V45.24Z" fill="white"/>
<path d="M32.3555 30.18C32.3555 20.7 39.3155 14.34 48.9155 14.34C58.4555 14.34 65.4155 20.7 65.4155 30.18C65.4155 39.66 58.4555 45.96 48.9155 45.96C39.3155 45.96 32.3555 39.66 32.3555 30.18ZM41.6555 30.12C41.6555 34.68 44.5955 37.68 48.9155 37.68C53.1755 37.68 56.1155 34.68 56.1155 30.12C56.1155 25.62 53.1755 22.62 48.9155 22.62C44.5955 22.62 41.6555 25.62 41.6555 30.12Z" fill="white"/>
<path d="M0.66 13.74C0.66 5.7 7.44 0 16.98 0C26.52 0 32.52 5.28 32.52 13.68H22.86C22.86 10.56 20.52 8.64 16.86 8.64C12.9 8.64 10.38 10.44 10.38 13.38C10.38 16.08 11.76 17.4 14.88 18.06L21.54 19.44C29.46 21.06 33.24 24.84 33.24 31.86C33.24 40.44 26.52 46.02 16.32 46.02C6.42 46.02 0 40.68 0 32.34H9.66C9.66 35.58 12.06 37.38 16.38 37.38C20.76 37.38 23.52 35.64 23.52 32.82C23.52 30.36 22.38 29.1 19.44 28.5L12.66 27.12C4.74 25.5 0.66 21 0.66 13.74Z" fill="white"/>
</svg>
